<svg preserveAspectRatio="none" width="100%" height="100%" overflow="visible" style="display: block;" viewBox="0 0 32 32" fill="none" xmlns="http://www.w3.org/2000/svg">
<g id="prime:upload">
<rect width="32" height="32" rx="16" fill="var(--fill-0, #428DFF)"/>
<path id="Vector" d="M16.0228 4.00789L16.3051 4.03425C16.5854 4.07505 16.8584 4.1593 17.1137 4.28425C17.4539 4.45088 17.7559 4.68623 17.9994 4.97566L17.9974 4.97664C18.0567 5.042 18.1053 5.11684 18.1371 5.19929C18.1709 5.28729 18.1865 5.38139 18.184 5.47566C18.1814 5.57002 18.1601 5.66301 18.1215 5.7491C18.0828 5.83514 18.028 5.91299 17.9594 5.97761C17.8906 6.04231 17.8092 6.09251 17.7211 6.12605C17.633 6.15953 17.5389 6.17545 17.4447 6.17293C17.3506 6.17035 17.2574 6.14957 17.1713 6.1114C17.0853 6.07323 17.0078 6.01836 16.9428 5.95027L16.934 5.94148L16.9262 5.93172C16.8122 5.79082 16.6705 5.67419 16.5092 5.58992C16.3508 5.50721 16.1768 5.45794 15.9984 5.44343C15.6165 5.44985 15.1358 5.76721 14.6351 6.53132C14.173 7.23685 13.7402 8.25855 13.3939 9.54207C14.2828 9.84488 15.1552 10.1944 16.0062 10.5909C18.0698 9.63527 20.2821 8.91012 22.1566 8.68953C23.1123 8.57709 23.9984 8.59308 24.7377 8.78914C25.4812 8.98638 26.0941 9.37177 26.4603 10.004C26.9303 10.8133 26.8198 11.8222 26.3373 12.8692C25.8825 13.856 25.0747 14.924 23.9994 15.9991C25.0752 17.0745 25.8824 18.1438 26.3373 19.1309C26.8199 20.1781 26.9304 21.1877 26.4603 21.9971L26.4535 22.0089C26.2498 22.3249 25.9827 22.5958 25.6693 22.8048C25.3601 23.011 25.0115 23.1513 24.6459 23.2198C24.6436 23.2203 24.6413 23.2203 24.639 23.2208C24.6364 23.2213 24.6339 23.2232 24.6312 23.2237L24.6303 23.2227C24.5435 23.2413 24.4543 23.2454 24.3666 23.2315C24.2736 23.2168 24.1843 23.1838 24.1039 23.1348C23.9412 23.0356 23.8243 22.8751 23.7797 22.6895C23.7576 22.5977 23.753 22.5025 23.768 22.4093C23.7829 22.316 23.8169 22.2269 23.8666 22.1466C23.9163 22.0662 23.9814 21.9966 24.058 21.9415C24.1346 21.8863 24.2211 21.8461 24.3129 21.8243L24.3246 21.8223L24.3353 21.8204C24.5148 21.7924 24.6871 21.7276 24.8402 21.6309C24.9889 21.5371 25.116 21.414 25.2162 21.2706C25.4025 20.9428 25.3699 20.3718 24.9515 19.5548C24.5671 18.804 23.8916 17.9204 22.9447 16.9796C22.2355 17.5935 21.4939 18.169 20.7221 18.7032C20.524 20.9636 20.0548 23.2292 19.3109 24.9503C18.9315 25.8282 18.4736 26.5808 17.932 27.1182C17.3871 27.6589 16.7445 27.9923 16.0101 27.9923C15.0711 27.9922 14.2466 27.3936 13.5746 26.4542C12.9419 25.5695 12.4142 24.3407 12.015 22.878C10.9668 23.1655 9.88705 23.3264 8.7992 23.3526H8.79237C7.32073 23.3526 6.11665 22.9549 5.55995 21.9971L5.55409 21.9864C5.37756 21.6531 5.27292 21.2862 5.24745 20.9102C5.22205 20.5344 5.27664 20.1576 5.40663 19.8038H5.40858C5.46573 19.6291 5.58553 19.4821 5.74745 19.3946C5.83039 19.3498 5.92131 19.3215 6.01502 19.3116C6.10878 19.3017 6.20384 19.3105 6.29432 19.337C6.38485 19.3635 6.46976 19.4078 6.54334 19.4669C6.61679 19.5259 6.67772 19.599 6.72303 19.6817C6.76836 19.7645 6.79697 19.8554 6.80702 19.9493C6.81702 20.0431 6.80844 20.1382 6.78163 20.2286L6.77772 20.2413L6.77381 20.253C6.70849 20.4204 6.67862 20.5991 6.68592 20.7784C6.69304 20.9524 6.73446 21.1236 6.80897 21.2813C7.01046 21.622 7.52991 21.8853 8.44569 21.9376C9.28962 21.9857 10.3944 21.8458 11.6918 21.4952C11.5094 20.5713 11.3762 19.6385 11.2963 18.7003C9.42711 17.4015 7.68863 15.8659 6.56092 14.3663C5.98562 13.6013 5.55754 12.8316 5.35975 12.0968C5.16072 11.3572 5.19186 10.6361 5.55995 10.003C6.02968 9.19477 6.96318 8.78593 8.11561 8.67781C9.20288 8.57585 10.5385 8.73596 12.014 9.1241C12.4135 7.65999 12.9422 6.43017 13.5756 5.545C14.2475 4.60591 15.0713 4.00792 16.0101 4.00789H16.0228ZM19.1615 19.7208C18.9205 19.868 18.6752 20.0138 18.4252 20.1573L18.4262 20.1583C16.8281 21.0859 15.142 21.8534 13.3939 22.4561C13.7403 23.7402 14.1728 24.762 14.6351 25.4678C15.1409 26.24 15.6263 26.5567 16.0101 26.5567C16.2955 26.5567 16.6117 26.4104 16.9467 26.0675C17.281 25.7252 17.6096 25.2108 17.9135 24.5421C18.463 23.3325 18.9068 21.6625 19.1615 19.7208ZM13.0765 10.9386C12.7637 12.6068 12.6096 14.3007 12.6195 15.9981V16.002C12.6097 17.6988 12.7639 19.3921 13.0765 21.0596C14.682 20.4876 16.2321 19.7721 17.7045 18.9161L17.7074 18.9141C19.1867 18.076 20.5807 17.0984 21.8744 15.9991C20.5809 14.9002 19.1863 13.924 17.7074 13.086L17.7045 13.0841C16.2319 12.2277 14.6822 11.5107 13.0765 10.9386ZM8.44569 10.0616C7.52595 10.114 7.00617 10.3795 6.80702 10.7218C6.66532 10.9654 6.63467 11.3094 6.766 11.7686C6.89707 12.2269 7.18075 12.7667 7.6117 13.3624C8.39147 14.4401 9.62538 15.6572 11.1908 16.8468C11.1899 16.8129 11.1887 16.7791 11.1879 16.7452L11.1791 16.0001C11.1685 14.1555 11.3421 12.3149 11.6928 10.504C10.3951 10.1532 9.2897 10.0136 8.44569 10.0616ZM24.3217 10.1671C23.8557 10.0512 23.242 10.0248 22.5062 10.0977C21.1763 10.2296 19.4982 10.6802 17.6801 11.4288C17.9273 11.5617 18.1757 11.6985 18.4242 11.8409H18.4232C20.0309 12.7517 21.5442 13.817 22.9437 15.0196C23.8906 14.0787 24.5662 13.1954 24.9506 12.4444C25.3711 11.6228 25.4033 11.0491 25.2133 10.7218C25.0733 10.4801 24.789 10.2834 24.3217 10.1671Z" fill="var(--fill-0, white)" stroke="var(--stroke-0, white)" stroke-width="0.6"/>
<path id="Vector_2" d="M17.2308 7.38462C17.2308 7.62804 17.303 7.86599 17.4382 8.06839C17.5734 8.27079 17.7656 8.42854 17.9905 8.5217C18.2154 8.61485 18.4629 8.63922 18.7016 8.59174C18.9404 8.54425 19.1597 8.42703 19.3318 8.2549C19.5039 8.08277 19.6212 7.86347 19.6687 7.62473C19.7161 7.38598 19.6918 7.13851 19.5986 6.91362C19.5055 6.68873 19.3477 6.49651 19.1453 6.36127C18.9429 6.22603 18.705 6.15385 18.4615 6.15385C18.1352 6.1542 17.8224 6.28399 17.5916 6.51472C17.3609 6.74546 17.2311 7.0583 17.2308 7.38462ZM18.4615 6.97436C18.5427 6.97436 18.622 6.99842 18.6895 7.0435C18.7569 7.08858 18.8095 7.15265 18.8406 7.22762C18.8716 7.30258 18.8797 7.38507 18.8639 7.46465C18.8481 7.54423 18.809 7.61734 18.7516 7.67471C18.6943 7.73209 18.6212 7.77116 18.5416 7.78699C18.462 7.80282 18.3795 7.79469 18.3045 7.76364C18.2296 7.73259 18.1655 7.68001 18.1204 7.61254C18.0753 7.54508 18.0513 7.46576 18.0513 7.38462C18.0514 7.27583 18.0946 7.17152 18.1715 7.0946C18.2484 7.01768 18.3528 6.97443 18.4615 6.97436Z" fill="var(--fill-0, white)"/>
<path id="Vector_3" d="M7.38462 19.0769C7.62804 19.0769 7.86599 19.0047 8.06839 18.8695C8.27079 18.7343 8.42854 18.542 8.5217 18.3171C8.61485 18.0923 8.63922 17.8448 8.59174 17.606C8.54425 17.3673 8.42703 17.148 8.2549 16.9759C8.08277 16.8037 7.86347 16.6865 7.62473 16.639C7.38598 16.5915 7.13851 16.6159 6.91362 16.7091C6.68873 16.8022 6.49651 16.96 6.36127 17.1624C6.22603 17.3648 6.15385 17.6027 6.15385 17.8462C6.1542 18.1725 6.28399 18.4853 6.51472 18.716C6.74546 18.9468 7.0583 19.0766 7.38462 19.0769ZM7.38462 17.4359C7.46576 17.4359 7.54508 17.46 7.61254 17.505C7.68001 17.5501 7.73259 17.6142 7.76364 17.6892C7.79469 17.7641 7.80282 17.8466 7.78699 17.9262C7.77116 18.0058 7.73209 18.0789 7.67471 18.1363C7.61733 18.1936 7.54423 18.2327 7.46465 18.2485C7.38507 18.2644 7.30258 18.2562 7.22762 18.2252C7.15265 18.1941 7.08858 18.1415 7.0435 18.0741C6.99842 18.0066 6.97436 17.9273 6.97436 17.8462C6.97443 17.7374 7.01768 17.6331 7.0946 17.5561C7.17152 17.4792 7.27583 17.436 7.38462 17.4359Z" fill="var(--fill-0, white)"/>
<path id="Vector_4" d="M22.1538 21.5385C21.9104 21.5385 21.6725 21.6106 21.4701 21.7459C21.2677 21.8811 21.1099 22.0733 21.0168 22.2982C20.9236 22.5231 20.8992 22.7706 20.9467 23.0093C20.9942 23.2481 21.1114 23.4674 21.2836 23.6395C21.4557 23.8116 21.675 23.9289 21.9137 23.9764C22.1525 24.0238 22.3999 23.9995 22.6248 23.9063C22.8497 23.8132 23.042 23.6554 23.1772 23.453C23.3124 23.2506 23.3846 23.0127 23.3846 22.7692C23.3843 22.4429 23.2545 22.1301 23.0237 21.8993C22.793 21.6686 22.4802 21.5388 22.1538 21.5385ZM22.1538 23.1795C22.0727 23.1795 21.9934 23.1554 21.9259 23.1103C21.8585 23.0653 21.8059 23.0012 21.7748 22.9262C21.7438 22.8513 21.7356 22.7688 21.7515 22.6892C21.7673 22.6096 21.8064 22.5365 21.8638 22.4791C21.9211 22.4218 21.9942 22.3827 22.0738 22.3669C22.1534 22.351 22.2359 22.3592 22.3108 22.3902C22.3858 22.4213 22.4499 22.4738 22.495 22.5413C22.54 22.6088 22.5641 22.6881 22.5641 22.7692C22.564 22.878 22.5208 22.9823 22.4439 23.0592C22.3669 23.1362 22.2626 23.1794 22.1538 23.1795Z" fill="var(--fill-0, white)"/>
</g>
</svg>
