<svg preserveAspectRatio="none" width="100%" height="100%" overflow="visible" style="display: block;" viewBox="0 0 24 24" fill="none" xmlns="http://www.w3.org/2000/svg">
<g id="line">
<rect width="24" height="24" rx="8" fill="var(--fill-0, #387AFF)"/>
<path id="Vector" d="M12.013 1.40039C12.328 1.41334 12.6374 1.4915 12.9202 1.63086C13.2029 1.77019 13.4534 1.96718 13.6556 2.20898H13.6546C13.6957 2.25338 13.7286 2.30479 13.7503 2.36133C13.7726 2.41953 13.7832 2.48165 13.7815 2.54395C13.7799 2.60621 13.7659 2.66772 13.7405 2.72461C13.7151 2.78156 13.6784 2.83309 13.6331 2.87598C13.588 2.91874 13.5349 2.95232 13.4769 2.97461C13.4188 2.99686 13.3564 3.00748 13.2942 3.00586C13.232 3.00418 13.1704 2.99015 13.1136 2.96484C13.0566 2.93944 13.0051 2.90269 12.9622 2.85742L12.9564 2.85156C12.8402 2.70696 12.6957 2.5873 12.5315 2.50098C12.3677 2.41486 12.1878 2.36348 12.0032 2.34961C11.5729 2.35277 11.0981 2.70337 10.6419 3.4043C10.1985 4.08572 9.78995 5.07399 9.47198 6.30859C10.3356 6.59819 11.1817 6.93859 12.0052 7.32812C13.8566 6.45816 15.8427 5.80131 17.513 5.60352C18.3541 5.50393 19.1213 5.51974 19.7532 5.68848C20.3864 5.85758 20.8894 6.18183 21.1878 6.7002C21.5675 7.35807 21.4906 8.19986 21.0706 9.11719C20.6594 10.0153 19.9108 11.0022 18.8987 12C19.9108 12.9978 20.6594 13.9847 21.0706 14.8828C21.4906 15.8002 21.5674 16.6418 21.1878 17.2998L21.1858 17.3037C21.0166 17.5681 20.7941 17.7948 20.5335 17.9697C20.2742 18.1437 19.9821 18.2616 19.6751 18.3184L19.6761 18.3193C19.6746 18.3197 19.6727 18.319 19.6712 18.3193L19.6702 18.3203L19.6692 18.3193C19.6105 18.3325 19.55 18.3357 19.4905 18.3262C19.429 18.3163 19.3698 18.2953 19.3167 18.2627C19.2094 18.1968 19.1331 18.0903 19.1038 17.9678C19.0894 17.9073 19.0863 17.8446 19.096 17.7832C19.1058 17.7218 19.128 17.6624 19.1605 17.6094C19.1931 17.5562 19.2359 17.5093 19.2864 17.4727C19.3369 17.436 19.3947 17.41 19.4554 17.3955L19.4632 17.3936C19.6456 17.3648 19.82 17.2992 19.9759 17.2002C20.1306 17.1019 20.2633 16.9727 20.3665 16.8213C20.5802 16.448 20.515 15.8622 20.1351 15.1152C19.7663 14.3905 19.114 13.5425 18.2034 12.6494C17.5205 13.2526 16.8034 13.8157 16.054 14.334C15.8823 16.3792 15.4627 18.4266 14.8001 19.9697C14.4663 20.747 14.0683 21.4023 13.6058 21.8643C13.1422 22.3271 12.6091 22.5996 12.0091 22.5996C11.2488 22.5996 10.5577 22.1126 9.97295 21.29C9.40074 20.4849 8.91967 19.3429 8.56182 17.9678C7.58942 18.2513 6.58448 18.409 5.57159 18.4336H5.56963C4.2741 18.4336 3.28053 18.0795 2.83038 17.2998L2.82842 17.2969C2.68194 17.0185 2.59564 16.7123 2.57452 16.3984C2.5534 16.0847 2.59759 15.77 2.70538 15.4746C2.74192 15.3563 2.82308 15.2565 2.93194 15.1973C2.98673 15.1675 3.04764 15.1491 3.10967 15.1426C3.17155 15.1361 3.23457 15.1416 3.29424 15.1592C3.35392 15.1769 3.4099 15.206 3.45831 15.2451C3.50673 15.2843 3.54669 15.333 3.57647 15.3877C3.60621 15.4424 3.62455 15.5026 3.63116 15.5645C3.63772 15.6264 3.63216 15.6893 3.61456 15.749L3.6126 15.7578L3.61065 15.7568C3.54393 15.9289 3.51435 16.1134 3.52178 16.2979C3.5292 16.4802 3.5739 16.6596 3.65264 16.8242L3.69756 16.8945C3.94332 17.2389 4.46838 17.4561 5.25127 17.501C6.0606 17.5473 7.11765 17.4057 8.34991 17.0576C8.16684 16.1573 8.03748 15.2468 7.96319 14.3311C6.27962 13.1614 4.71687 11.7753 3.71221 10.4307C3.20612 9.75325 2.83804 9.08149 2.66924 8.4502C2.50009 7.81744 2.53041 7.21956 2.83038 6.7002C3.20998 6.04267 3.97681 5.68861 4.98077 5.59375C5.96349 5.50095 7.19241 5.65405 8.56182 6.03125C8.9197 4.6563 9.40075 3.51493 9.97295 2.70996C10.5577 1.88739 11.2488 1.4004 12.0091 1.40039H12.013ZM15.0296 15.0107C14.7214 15.2058 14.4059 15.3998 14.0804 15.5879L14.0794 15.5869C12.6178 16.4408 11.0744 17.1455 9.47198 17.6904C9.78999 18.9255 10.1984 19.9141 10.6419 20.5957C11.1001 21.2998 11.5772 21.6504 12.0091 21.6504C12.3248 21.6504 12.6471 21.4859 12.9642 21.1592C13.2809 20.8328 13.584 20.3519 13.8597 19.7412C14.3918 18.5623 14.8105 16.9158 15.0296 15.0107ZM9.26397 7.22949C8.95797 8.80067 8.80747 10.3982 8.8167 11.999V12.001C8.80749 13.6015 8.9581 15.1987 9.26397 16.7695C10.7718 16.2421 12.2259 15.5716 13.6048 14.7646H13.6058C14.992 13.9741 16.2952 13.0469 17.4993 12C16.2952 10.9531 14.9919 10.0259 13.6058 9.23535H13.6048C12.2259 8.42824 10.7719 7.75697 9.26397 7.22949ZM5.25127 6.49805C4.41627 6.54587 3.87471 6.79009 3.65264 7.1748C3.49483 7.44799 3.47651 7.80936 3.60088 8.24707C3.72521 8.68439 3.98921 9.18756 4.38018 9.73145C5.13471 10.7811 6.35102 11.9654 7.88995 13.1064C7.8842 12.9602 7.87792 12.8131 7.87432 12.665L7.86651 12C7.85676 10.3017 8.01964 8.60698 8.35088 6.94141C7.11828 6.59308 6.06068 6.45175 5.25127 6.49805ZM19.4651 6.59668C19.0242 6.48629 18.4557 6.46465 17.7884 6.53125C16.5008 6.65978 14.8647 7.11797 13.1067 7.87793C13.4298 8.04721 13.7548 8.22438 14.0804 8.41211C15.5501 9.25022 16.9307 10.2351 18.2034 11.3496C19.1137 10.4566 19.7665 9.60953 20.1351 8.88477C20.5157 8.13613 20.581 7.54834 20.3655 7.1748C20.2093 6.90331 19.9065 6.70722 19.4651 6.59668Z" fill="var(--fill-0, white)" stroke="var(--stroke-0, white)" stroke-width="0.2"/>
<path id="Vector_2" d="M13.3311 4.45935C13.3311 4.68185 13.3971 4.89936 13.5207 5.08437C13.6443 5.26937 13.82 5.41357 14.0256 5.49871C14.2312 5.58386 14.4574 5.60614 14.6756 5.56273C14.8938 5.51933 15.0943 5.41218 15.2516 5.25485C15.409 5.09751 15.5161 4.89706 15.5595 4.67883C15.6029 4.4606 15.5806 4.2344 15.4955 4.02883C15.4103 3.82326 15.2662 3.64756 15.0812 3.52395C14.8961 3.40033 14.6786 3.33435 14.4561 3.33435C14.1579 3.33468 13.8719 3.45331 13.661 3.66421C13.4501 3.87512 13.3315 4.16108 13.3311 4.45935ZM14.4561 4.08435C14.5303 4.08435 14.6028 4.10634 14.6645 4.14755C14.7261 4.18875 14.7742 4.24732 14.8026 4.31584C14.831 4.38437 14.8384 4.45977 14.8239 4.53251C14.8095 4.60525 14.7737 4.67207 14.7213 4.72452C14.6689 4.77696 14.602 4.81268 14.5293 4.82714C14.4566 4.84161 14.3812 4.83419 14.3126 4.8058C14.2441 4.77742 14.1855 4.72936 14.1443 4.66769C14.1031 4.60602 14.0811 4.53352 14.0811 4.45935C14.0812 4.35991 14.1207 4.26457 14.191 4.19426C14.2614 4.12395 14.3567 4.08442 14.4561 4.08435Z" fill="var(--fill-0, white)"/>
<path id="Vector_3" d="M4.25533 14.7762C4.47783 14.7762 4.69534 14.7103 4.88034 14.5866C5.06535 14.463 5.20954 14.2873 5.29469 14.0818C5.37984 13.8762 5.40212 13.65 5.35871 13.4318C5.3153 13.2135 5.20816 13.0131 5.05082 12.8557C4.89349 12.6984 4.69303 12.5913 4.4748 12.5479C4.25658 12.5045 4.03038 12.5267 3.82481 12.6119C3.61924 12.697 3.44354 12.8412 3.31992 13.0262C3.19631 13.2112 3.13033 13.4287 3.13033 13.6512C3.13065 13.9495 3.24928 14.2355 3.46019 14.4464C3.6711 14.6573 3.95706 14.7759 4.25533 14.7762ZM4.25533 13.2762C4.3295 13.2762 4.402 13.2982 4.46367 13.3394C4.52533 13.3806 4.5734 13.4392 4.60178 13.5077C4.63017 13.5763 4.63759 13.6517 4.62312 13.7244C4.60865 13.7971 4.57294 13.864 4.52049 13.9164C4.46805 13.9689 4.40123 14.0046 4.32849 14.019C4.25574 14.0335 4.18034 14.0261 4.11182 13.9977C4.0433 13.9693 3.98473 13.9213 3.94353 13.8596C3.90232 13.7979 3.88033 13.7254 3.88033 13.6512C3.88039 13.5518 3.91992 13.4565 3.99024 13.3862C4.06055 13.3158 4.15589 13.2763 4.25533 13.2762Z" fill="var(--fill-0, white)"/>
<path id="Vector_4" d="M17.3159 16.7644C17.0934 16.7644 16.8759 16.8304 16.6909 16.954C16.5059 17.0776 16.3617 17.2533 16.2765 17.4589C16.1914 17.6645 16.1691 17.8907 16.2125 18.1089C16.2559 18.3271 16.363 18.5276 16.5204 18.6849C16.6777 18.8422 16.8782 18.9494 17.0964 18.9928C17.3146 19.0362 17.5408 19.0139 17.7464 18.9288C17.952 18.8436 18.1277 18.6994 18.2513 18.5144C18.3749 18.3294 18.4409 18.1119 18.4409 17.8894C18.4406 17.5911 18.3219 17.3052 18.111 17.0943C17.9001 16.8834 17.6141 16.7647 17.3159 16.7644ZM17.3159 18.2644C17.2417 18.2644 17.1692 18.2424 17.1075 18.2012C17.0459 18.16 16.9978 18.1014 16.9694 18.0329C16.941 17.9644 16.9336 17.889 16.9481 17.8162C16.9626 17.7435 16.9983 17.6767 17.0507 17.6242C17.1032 17.5718 17.17 17.5361 17.2427 17.5216C17.3155 17.5071 17.3909 17.5146 17.4594 17.543C17.5279 17.5713 17.5865 17.6194 17.6277 17.6811C17.6689 17.7427 17.6909 17.8152 17.6909 17.8894C17.6908 17.9888 17.6513 18.0842 17.581 18.1545C17.5107 18.2248 17.4153 18.2643 17.3159 18.2644Z" fill="var(--fill-0, white)"/>
</g>
</svg>
