<svg preserveAspectRatio="none" width="100%" height="100%" overflow="visible" style="display: block;" viewBox="0 0 46 32" fill="none" xmlns="http://www.w3.org/2000/svg">
<g id="Title Bar / Parts / Title Bar Caption Control Button">
<g id="Base">
</g>
<path id="ChromeMinimize" d="M17.5977 16C17.5156 16 17.4375 15.987 17.3633 15.961C17.293 15.935 17.2305 15.8992 17.1758 15.8537C17.1211 15.8081 17.0781 15.7561 17.0469 15.6976C17.0156 15.6358 17 15.5707 17 15.5024C17 15.4341 17.0156 15.3707 17.0469 15.3122C17.0781 15.2504 17.1211 15.1967 17.1758 15.1512C17.2305 15.1024 17.293 15.065 17.3633 15.039C17.4375 15.013 17.5156 15 17.5977 15H28.4023C28.4844 15 28.5605 15.013 28.6309 15.039C28.7051 15.065 28.7695 15.1024 28.8242 15.1512C28.8789 15.1967 28.9219 15.2504 28.9531 15.3122C28.9844 15.3707 29 15.4341 29 15.5024C29 15.5707 28.9844 15.6358 28.9531 15.6976C28.9219 15.7561 28.8789 15.8081 28.8242 15.8537C28.7695 15.8992 28.7051 15.935 28.6309 15.961C28.5605 15.987 28.4844 16 28.4023 16H17.5977Z" fill="var(--fill-0, #979797)"/>
</g>
</svg>
