<svg preserveAspectRatio="none" width="100%" height="100%" overflow="visible" style="display: block;" viewBox="0 0 46 32" fill="none" xmlns="http://www.w3.org/2000/svg">
<g id="Title Bar / Parts / Title Bar Caption Control Button">
<g id="Base">
</g>
<path id="ChromeClose" d="M23 16.8496L18.0254 21.8242C17.9082 21.9414 17.7676 22 17.6035 22C17.4316 22 17.2871 21.9434 17.1699 21.8301C17.0566 21.7129 17 21.5684 17 21.3965C17 21.2324 17.0586 21.0918 17.1758 20.9746L22.1504 16L17.1758 11.0254C17.0586 10.9082 17 10.7656 17 10.5977C17 10.5156 17.0156 10.4375 17.0469 10.3633C17.0781 10.2891 17.1211 10.2266 17.1758 10.1758C17.2305 10.1211 17.2949 10.0781 17.3691 10.0469C17.4434 10.0156 17.5215 10 17.6035 10C17.7676 10 17.9082 10.0586 18.0254 10.1758L23 15.1504L27.9746 10.1758C28.0918 10.0586 28.2344 10 28.4023 10C28.4844 10 28.5605 10.0156 28.6309 10.0469C28.7051 10.0781 28.7695 10.1211 28.8242 10.1758C28.8789 10.2305 28.9219 10.2949 28.9531 10.3691C28.9844 10.4395 29 10.5156 29 10.5977C29 10.7656 28.9414 10.9082 28.8242 11.0254L23.8496 16L28.8242 20.9746C28.9414 21.0918 29 21.2324 29 21.3965C29 21.4785 28.9844 21.5566 28.9531 21.6309C28.9219 21.7051 28.8789 21.7695 28.8242 21.8242C28.7734 21.8789 28.7109 21.9219 28.6367 21.9531C28.5625 21.9844 28.4844 22 28.4023 22C28.2344 22 28.0918 21.9414 27.9746 21.8242L23 16.8496Z" fill="var(--fill-0, #979797)"/>
</g>
</svg>
