<svg preserveAspectRatio="none" width="100%" height="100%" overflow="visible" style="display: block;" viewBox="0 0 22 22" fill="none" xmlns="http://www.w3.org/2000/svg">
<g id="Group">
<path id="Vector" d="M18.6374 11.2813L19.9934 12.4888C20.2438 12.6978 20.4112 12.9895 20.4651 13.3111C20.519 13.6328 20.456 13.9631 20.2874 14.2423L18.6524 17.0353C18.5256 17.2491 18.3445 17.4256 18.1274 17.5468C17.9079 17.6683 17.6614 17.7328 17.4104 17.7343C17.2548 17.7353 17.0999 17.712 16.9514 17.6653L15.2159 17.0923C14.9119 17.2873 14.5959 17.4618 14.2679 17.6158L13.9034 19.3753C13.836 19.699 13.6558 19.9882 13.3949 20.1913C13.1308 20.3981 12.8033 20.5073 12.4679 20.5003H9.08244C8.74706 20.5073 8.41959 20.3981 8.15545 20.1913C7.89516 19.9879 7.7155 19.6988 7.64845 19.3753L7.28245 17.6158C6.95875 17.4597 6.64468 17.2844 6.34195 17.0908L4.60045 17.6653C4.45195 17.712 4.2971 17.7353 4.14145 17.7343C3.89103 17.7325 3.64506 17.6681 3.42595 17.5468C3.2091 17.426 3.028 17.2501 2.90095 17.0368L1.20745 14.2423C1.03139 13.9606 0.964117 13.6243 1.01824 13.2965C1.07236 12.9688 1.24416 12.672 1.50145 12.4618L2.85595 10.7503V10.2193L1.49995 9.01181C1.24954 8.80285 1.08223 8.51114 1.0283 8.18949C0.974369 7.86784 1.03739 7.53752 1.20595 7.25831L2.89945 4.46531C3.02629 4.25151 3.20741 4.07505 3.42445 3.95381C3.64356 3.83257 3.88953 3.76811 4.13995 3.76631C4.2942 3.75658 4.44902 3.77075 4.59895 3.80831L6.30595 4.40831C6.61095 4.21331 6.92695 4.03881 7.25395 3.88481L7.61995 2.12531C7.687 1.80186 7.86666 1.51271 8.12694 1.30931C8.39109 1.10253 8.71856 0.993371 9.05394 1.00031H12.4109C12.7463 0.993371 13.0738 1.10253 13.3379 1.30931C13.6004 1.51481 13.7804 1.80431 13.8449 2.12531L14.2109 3.88481C14.5359 4.03981 14.8494 4.21481 15.1514 4.40981L16.8944 3.83681C17.0879 3.77388 17.2923 3.75179 17.4947 3.77193C17.6971 3.79207 17.8932 3.854 18.0704 3.95381C18.2879 4.07681 18.4679 4.25381 18.5954 4.46381L20.2874 7.25831C20.4659 7.53764 20.5366 7.87236 20.4863 8.19999C20.4361 8.52761 20.2684 8.82577 20.0144 9.03881L18.6374 10.2118V11.2813Z" stroke="var(--stroke-0, #909090)" stroke-width="1.4"/>
<path id="Vector_2" d="M14.5004 10.7503C14.5004 11.7449 14.1054 12.6987 13.4021 13.402C12.6988 14.1052 11.745 14.5003 10.7504 14.5003C9.75588 14.5003 8.80206 14.1052 8.0988 13.402C7.39553 12.6987 7.00045 11.7449 7.00045 10.7503C7.00045 9.75575 7.39553 8.80192 8.0988 8.09866C8.80206 7.3954 9.75588 7.00031 10.7504 7.00031C11.745 7.00031 12.6988 7.3954 13.4021 8.09866C14.1054 8.80192 14.5004 9.75575 14.5004 10.7503Z" stroke="var(--stroke-0, #909090)" stroke-width="1.4"/>
</g>
</svg>
