<svg preserveAspectRatio="none" width="100%" height="100%" overflow="visible" style="display: block;" viewBox="0 0 46 32" fill="none" xmlns="http://www.w3.org/2000/svg">
<g id="Title Bar / Parts / Title Bar Caption Control Button">
<g id="Base">
</g>
<path id="ChromeMaximize" d="M18.7695 22C18.5352 22 18.3105 21.9531 18.0957 21.8594C17.8809 21.7617 17.6914 21.6328 17.5273 21.4727C17.3672 21.3086 17.2383 21.1191 17.1406 20.9043C17.0469 20.6895 17 20.4648 17 20.2305V11.7695C17 11.5352 17.0469 11.3105 17.1406 11.0957C17.2383 10.8809 17.3672 10.6934 17.5273 10.5332C17.6914 10.3691 17.8809 10.2402 18.0957 10.1465C18.3105 10.0488 18.5352 10 18.7695 10H27.2305C27.4648 10 27.6895 10.0488 27.9043 10.1465C28.1191 10.2402 28.3066 10.3691 28.4668 10.5332C28.6309 10.6934 28.7598 10.8809 28.8535 11.0957C28.9512 11.3105 29 11.5352 29 11.7695V20.2305C29 20.4648 28.9512 20.6895 28.8535 20.9043C28.7598 21.1191 28.6309 21.3086 28.4668 21.4727C28.3066 21.6328 28.1191 21.7617 27.9043 21.8594C27.6895 21.9531 27.4648 22 27.2305 22H18.7695ZM27.2012 20.7988C27.2832 20.7988 27.3594 20.7832 27.4297 20.752C27.5039 20.7207 27.5684 20.6777 27.623 20.623C27.6777 20.5684 27.7207 20.5059 27.752 20.4355C27.7832 20.3613 27.7988 20.2832 27.7988 20.2012V11.7988C27.7988 11.7168 27.7832 11.6406 27.752 11.5703C27.7207 11.4961 27.6777 11.4316 27.623 11.377C27.5684 11.3223 27.5039 11.2793 27.4297 11.248C27.3594 11.2168 27.2832 11.2012 27.2012 11.2012H18.7988C18.7168 11.2012 18.6387 11.2168 18.5645 11.248C18.4941 11.2793 18.4316 11.3223 18.377 11.377C18.3223 11.4316 18.2793 11.4961 18.248 11.5703C18.2168 11.6406 18.2012 11.7168 18.2012 11.7988V20.2012C18.2012 20.2832 18.2168 20.3613 18.248 20.4355C18.2793 20.5059 18.3223 20.5684 18.377 20.623C18.4316 20.6777 18.4941 20.7207 18.5645 20.752C18.6387 20.7832 18.7168 20.7988 18.7988 20.7988H27.2012Z" fill="var(--fill-0, #979797)"/>
</g>
</svg>
